
<svg width="18px" height="18px" viewBox="0 0 18 18" version="1.1" xmlns="http://www.w3.org/2000/svg" xmlns:xlink="http://www.w3.org/1999/xlink">
    <g id="home" stroke="none" stroke-width="1" fill="none" fill-rule="evenodd">
        <g id="Dashboard-home" transform="translate(-49.000000, -211.000000)" fill="#000000" fill-rule="nonzero">
            <g id="data-report" transform="translate(49.000000, 211.000000)">
                <polygon id="Path" points="0 16.5 18 16.5 18 18 0 18"></polygon>
                <path d="M2.4375,6.75 C1.91973305,6.75 1.5,7.15294373 1.5,7.65 L1.5,15.75 L5.25,15.75 L5.25,7.65 C5.25,7.15294373 4.83026695,6.75 4.3125,6.75 L2.4375,6.75 Z" id="Path"></path>
                <path d="M8.4375,11.25 C7.91973305,11.25 7.5,11.6817254 7.5,12.2142857 L7.5,15.75 L11.25,15.75 L11.25,12.2142857 C11.25,11.6817254 10.830267,11.25 10.3125,11.25 L8.4375,11.25 Z" id="Path"></path>
                <path d="M13.6875,13.5 C13.169733,13.5 12.75,13.8777597 12.75,14.34375 L12.75,15.75 L16.5,15.75 L16.5,14.34375 C16.5,13.8777597 16.080267,13.5 15.5625,13.5 L13.6875,13.5 Z" id="Path"></path>
                <path d="M7.68061003,7.60071531 C8.07841156,8.92516877 9.12093435,9.95708837 10.4489409,10.3408903 C10.8326249,10.4469231 11.2289019,10.5004458 11.626954,10.5 C13.9040494,10.5 15.75,8.65317423 15.75,6.37500263 C15.75,6.04954955 15.4862928,5.78571769 15.1609934,5.78571769 L13.0994704,5.78571769 C12.6115214,5.78571769 12.2159606,5.38996991 12.2159606,4.90179029 L12.2159606,2.839293 C12.2159606,2.51383992 11.9522534,2.25 11.626954,2.25 C10.3814303,2.24754734 9.20154731,2.80852736 8.41686824,3.77625605 C7.55526586,4.8512237 7.27973156,6.28247387 7.68061003,7.60071531 L7.68061003,7.60071531 Z" id="Path"></path>
                <path d="M14.0625,4.5 L17.4375,4.5 C17.7481602,4.5 18,4.24816017 18,3.9375 C18,1.7628788 16.2371212,0 14.0625,0 C13.7518398,0 13.5,0.251839828 13.5,0.5625 L13.5,3.661875 C13.5,4.246875 13.753125,4.5 14.0625,4.5 L14.0625,4.5 Z" id="Path"></path>
                <polygon id="Path" points="0 0 8.25 0 8.25 1.5 0 1.5"></polygon>
                <polygon id="Path" points="0 2.25 5.25 2.25 5.25 3.75 0 3.75"></polygon>
            </g>
        </g>
    </g>
</svg>
