<?xml version="1.0" encoding="UTF-8"?><svg id="uuid-6613745e-e41a-4633-afc8-0bae1530af78" xmlns="http://www.w3.org/2000/svg" viewBox="0 0 173.02 39"><g id="uuid-e6553d35-26c9-4cdd-ac17-9b078796c03c"><path d="m0,34.54c0-2.36,1.75-4.04,3.96-4.04,1.83,0,3.43,1.18,3.47,3.54-1.52.34-2.48,1.26-2.48,2.55,0,.91.61,1.68,1.68,1.68,1.79,0,2.93-1.29,2.93-3.43,0-3.28-3.35-3.85-2.86-7.16l2.67-17.25h-2.09l.08-.38h2.09c.84-5.67,2.13-10.05,7.77-10.05,3.69,0,7.05,2.32,6.74,6.78-.15,2.67-1.64,4.3-3.81,4.53,1.37-7.81-.5-10.7-3.58-10.7-2.86,0-4.15,1.94-4.15,3.88,0,3.01,3.16,3.69,3.31,5.56h2.51l-.08.38h-1.9l-2.86,18.43c-.72,4.57-2.4,10.13-8.26,10.13-3.31,0-5.14-2.13-5.14-4.46Z" style="fill:#231f20;"/><path d="m17.98,24.22l3.47-21.18c.23-1.49-.34-1.68-1.6-1.41v-.15c1.33-.76,4-1.49,5.83-1.49,2.17,0,2.97.8,2.51,3.39l-3.2,18.43c-.84,4.8-.76,7.46.91,8.11v.15c-.99.19-1.9.27-2.82.27-3.24,0-5.9-1.29-5.1-6.13Z" style="fill:#231f20;"/><path d="m50.01,18.4c0,6.32-5.71,12-12.49,12-5.45,0-9.22-3.62-9.22-8.65,0-6.51,5.6-12,12.45-12,5.48,0,9.25,3.62,9.25,8.65Zm-6.97-3.92c0-2.25-.42-4.34-2.32-4.34-4.19,0-5.45,11.65-5.45,15.62,0,2.25.42,4.27,2.29,4.27,4.23,0,5.48-11.04,5.48-15.54Z" style="fill:#231f20;"/><path d="m78.76,9.75c2.29,0,4.3,1.79,4.3,5.71,0,7.66-7.27,14.93-14.09,14.93-3.58,0-4.92-2.01-4.54-5.33-1.7,3.41-4.63,5.33-7.56,5.33-3.35,0-5.56-1.79-4.88-6.21l1.75-11.24c.23-1.49-.34-1.68-1.6-1.41v-.15c1.33-.76,4-1.49,5.83-1.49,2.17,0,3.08.84,2.67,3.39l-1.75,10.47c-.38,2.32-.88,5.18.99,5.18s4.04-3.02,4.62-4.61l2.16-13.98c2.29.08,4.53,0,6.82-.3l-2.25,13.71c-.57,3.58-.53,5.18,1.29,5.18,4,0,9.79-6.74,9.79-11.35,0-1.71-.88-2.48-2.17-2.48-1.07,0-2.02.5-2.44,1.6-1.79-.23-2.86-1.75-2.86-3.43,0-2.02,1.79-3.54,3.92-3.54h0Z" style="fill:#231f20;"/><path d="m91.63,19.35c0,4.23,2.06,6.36,5.14,6.44,2.02.04,4.72-.57,6.44-2.93l.27.11c-2.59,4.68-6.7,7.43-11.16,7.43s-7.73-3.16-7.73-8.23c0-6.63,5.1-12.42,12.38-12.42,4.42,0,7.35,1.79,7.35,4.88,0,2.36-1.75,4.04-3.92,4.04-1.6,0-3.28-.99-3.12-3.47.72-.3,1.9-1.18,1.9-2.78,0-1.37-.76-2.29-2.13-2.29-3.28,0-5.41,5.1-5.41,9.22Z" style="fill:#231f20;"/><path d="m127.13,18.4c0,6.32-5.71,12-12.49,12-5.45,0-9.22-3.62-9.22-8.65,0-6.51,5.6-12,12.45-12,5.48,0,9.25,3.62,9.25,8.65Zm-6.97-3.92c0-2.25-.42-4.34-2.32-4.34-4.19,0-5.45,11.65-5.45,15.62,0,2.25.42,4.27,2.29,4.27,4.23,0,5.48-11.04,5.48-15.54Z" style="fill:#231f20;"/><path d="m150.85,18.4c0,6.32-5.71,12-12.49,12-5.45,0-9.22-3.62-9.22-8.65,0-6.51,5.6-12,12.45-12,5.48,0,9.25,3.62,9.25,8.65Zm-6.97-3.92c0-2.25-.42-4.34-2.32-4.34-4.19,0-5.45,11.65-5.45,15.62,0,2.25.42,4.27,2.29,4.27,4.23,0,5.48-11.04,5.48-15.54Z" style="fill:#231f20;"/><path d="m162.7,25.14c-.53-3.01-.84-5.07-2.36-5.07v-.15c2.59-.88,6.02-3.5,6.02-6.74,0-.91-.3-1.37-.99-1.37-2.09,0-4.65,4.46-6.06,10.13-.65,2.63-1.71,7.35-.42,8v.15c-1.33.19-2.4.3-3.31.3-3.01,0-4.3-1.29-3.54-5.98l3.5-21.37c.23-1.49-.34-1.68-1.6-1.41v-.15c1.33-.76,4-1.49,5.83-1.49,2.17,0,3.01.8,2.51,3.39l-3.54,18.43h.15c2.55-9.71,6.28-12.07,9.71-12.07s4.38,2.09,4.38,3.5c0,4.34-5.56,5.52-12.07,6.67v.04c1.75-.19,3.35-.23,4.61-.04,3.31.5,4.15,3.35,4.91,5.94.69,2.32,1.11,3.69,2.59,4.08v.15c-1.41.27-2.97.53-4.46.53-3.12,0-5.07-.99-5.87-5.48Z" style="fill:#231f20;"/></g></svg>