
<svg width="16px" height="16px" viewBox="0 0 16 16" version="1.1" xmlns="http://www.w3.org/2000/svg" xmlns:xlink="http://www.w3.org/1999/xlink">
    <g id="home" stroke="none" stroke-width="1" fill="none" fill-rule="evenodd">
        <g id="Dashboard-home" transform="translate(-48.000000, -984.000000)" fill="#FFFFFF" fill-rule="nonzero">
            <g id="logout-2" transform="translate(48.000000, 984.000000)">
                <path d="M8.30770734,14.6666954 L2.07691055,14.6666954 C1.69475276,14.6666954 1.38461789,14.3680156 1.38461789,14.0000431 L1.38461789,2.0000196 C1.38461789,1.63201574 1.69478532,1.3333673 2.07691055,1.3333673 L8.30770734,1.3333673 C8.69054889,1.3333673 9,1.0353773 9,0.666715004 C9,0.29805271 8.69054889,0 8.30770734,0 L2.07691055,0 C0.931837257,0 0,0.897356256 0,2.0000196 L0,14.0000118 C0,15.1026751 0.931837257,16 2.07691055,16 L8.30770734,16 C8.69054889,16 9,15.70201 9,15.3333477 C9,14.9646854 8.69054889,14.6666954 8.30770734,14.6666954 Z" id="Path"></path>
                <path d="M15.7961509,8.04226689 L11.6369348,4.18507645 C11.3687716,3.93564027 10.9350775,3.93887538 10.669649,4.19151644 C10.4042205,4.4441575 10.4069553,4.85108618 10.6765019,5.10052236 L13.6488184,7.85710965 L5.68406552,7.85710965 C5.30577362,7.85710965 5,8.14446014 5,8.49995961 C5,8.85545908 5.30577362,9.1428398 5.68406552,9.1428398 L13.6488184,9.1428398 L10.6765019,11.8994271 C10.4069874,12.1488633 10.4049283,12.555792 10.669649,12.808433 C10.8037145,12.9357211 10.9802164,13 11.1567183,13 C11.3304855,13 11.5042205,12.938291 11.6369348,12.8148428 L15.7961509,8.95765233 C15.9261304,8.83680428 16,8.67220663 16,8.49992937 C16,8.32771259 15.9268061,8.1637801 15.7961509,8.04226689 Z" id="Path"></path>
            </g>
        </g>
    </g>
</svg>
