<?xml version="1.0" encoding="UTF-8"?>
<svg width="496px" height="151px" viewBox="0 0 496 151" version="1.1" xmlns="http://www.w3.org/2000/svg" xmlns:xlink="http://www.w3.org/1999/xlink">
    <title>Logo</title>
    <g id="home" stroke="none" stroke-width="1" fill="none" fill-rule="evenodd">
        <g id="Logo" fill="#000000" fill-rule="nonzero">
            <g id="FOOD">
                <polygon id="Path" points="74.5433526 15.5314286 74.5433526 0 0 0 0 72 18.1321668 72 18.1321668 49.4742857 68.499297 49.4742857 68.499297 33.84 18.1321668 33.84 18.1321668 15.5314286"></polygon>
                <path d="M118.982659,72 C149.989175,72 163.421965,59.1 163.421965,35.9 C163.421965,12.8 149.989175,0 118.982659,0 C87.8751445,0 74.5433526,12.7 74.5433526,35.9 C74.5433526,59.2 87.8751445,72 118.982659,72 Z M118.982659,56.9 C100.095954,56.9 92.7230688,50.3 92.7230688,35.9 C92.7230688,21.6 99.9949553,15.1 118.982659,15.1 C137.970363,15.1 145.242249,21.7 145.242249,35.9 C145.242249,50.2 137.869364,56.9 118.982659,56.9 Z" id="Shape"></path>
                <path d="M213.595376,72 C213.627572,72 362.666899,72 362.699057,72 C393.636924,71.9731992 407.041833,59.07591 407.041833,35.9 C407.041833,12.8348601 393.649554,0.0386562694 362.742781,0 C362.69607,0 213.642167,0 213.595376,0 C182.487861,0 169.156069,12.7 169.156069,35.9 C169.156069,59.2 182.487861,72 213.595376,72 Z M213.595376,56.9 C194.708671,56.9 187.335786,50.3 187.335786,35.9 C187.335786,21.6 194.607672,15.1 213.595376,15.1 C213.654582,15.1 362.720825,15.1 362.779803,15.1 C381.635509,15.1412333 388.862116,21.7442775 388.862116,35.9 C388.862116,50.170412 381.51971,56.8722416 362.719613,56.9 C362.680634,56.9 213.634454,56.9 213.595376,56.9 Z" id="Shape"></path>
                <path d="M462.663758,0 L412.855491,0 L412.855491,72 L462.663758,72 C480.410405,72 496,60.48 496,36 C496,11.52 480.410405,0 462.663758,0 Z M456.025775,57.6 L430.057803,57.6 L430.057803,17.28 L456.025775,17.28 C469.609021,17.28 478.797688,20.2178894 478.797688,37.44 C478.797688,54.6621106 469.609021,57.6 456.025775,57.6 Z" id="Shape"></path>
            </g>
            <g id="MOOD" transform="translate(0.000000, 79.000000)">
                <polygon id="Path" points="106.080925 0 82.0345958 0 53.0404624 50.8114286 24.046329 0 0 0 0 72 17.8120956 72 17.8120956 22.6285714 46.6083168 72 59.4726081 72 88.2688293 22.6285714 88.2688293 72 106.080925 72"></polygon>
                <path d="M362.682081,72 C393.688597,72 407.121387,59.1 407.121387,35.9 C407.121387,12.8 393.688597,0 362.682081,0 C331.574566,0 318.242775,12.7 318.242775,35.9 C318.242775,59.2 331.574566,72 362.682081,72 Z M362.682081,56.9 C343.795376,56.9 336.422491,50.3 336.422491,35.9 C336.422491,21.6 343.694377,15.1 362.682081,15.1 C381.669785,15.1 388.941671,21.7 388.941671,35.9 C388.941671,50.2 381.568786,56.9 362.682081,56.9 Z" id="Shape"></path>
                <path d="M462.663758,0 L412.855491,0 L412.855491,72 L462.663758,72 C480.410405,72 496,60.48 496,36 C496,11.52 480.410405,0 462.663758,0 Z M456.025775,57.6 L430.057803,57.6 L430.057803,17.28 L456.025775,17.28 C469.609021,17.28 478.797688,20.2178894 478.797688,37.44 C478.797688,54.6621106 469.609021,57.6 456.025775,57.6 Z" id="Shape"></path>
                <path d="M156.254335,72 C156.286531,72 269.401067,72 269.433225,72 C300.371092,71.9731992 313.776001,59.07591 313.776001,35.9 C313.776001,12.8348601 300.383723,0.0386562694 269.47695,0 C269.430238,0 156.301127,0 156.254335,0 C125.146821,0 111.815029,12.7 111.815029,35.9 C111.815029,59.2 125.146821,72 156.254335,72 Z M156.254335,56.9 C137.36763,56.9 129.994745,50.3 129.994745,35.9 C129.994745,21.6 137.266632,15.1 156.254335,15.1 C156.313541,15.1 269.454993,15.1 269.513971,15.1 C288.369677,15.1412333 295.596285,21.7442775 295.596285,35.9 C295.596285,50.170412 288.253878,56.8722416 269.453782,56.9 C269.414802,56.9 156.293414,56.9 156.254335,56.9 Z" id="Shape"></path>
            </g>
        </g>
    </g>
</svg>