
<svg width="106px" height="106px" viewBox="0 0 106 106" version="1.1" xmlns="http://www.w3.org/2000/svg" xmlns:xlink="http://www.w3.org/1999/xlink">
    <g id="home" stroke="none" stroke-width="1" fill="white" fill-rule="evenodd">
        <g id="Extra-Large-Copy" transform="translate(-998.000000, -3036.000000)" fill="#000000" fill-rule="nonzero">
            <g id="Group" transform="translate(1051.000000, 3089.000000) rotate(-315.000000) translate(-1051.000000, -3089.000000) translate(1014.000000, 3052.000000)">
                <path d="M43.7795072,37.0005486 L72.5936199,8.18496002 C74.4687934,6.31062545 74.4687934,3.28008551 72.5936199,1.40575093 C70.7193242,-0.468583644 67.6888472,-0.468583644 65.8145515,1.40575093 L36.999561,30.2213397 L8.18544847,1.40575093 C6.31027497,-0.468583644 3.28067579,-0.468583644 1.40638012,1.40575093 C-0.468793374,3.28008551 -0.468793374,6.31062545 1.40638012,8.18496002 L30.2204928,37.0005486 L1.40638012,65.8161374 C-0.468793374,67.690472 -0.468793374,70.7210119 1.40638012,72.5953465 C2.34045531,73.5303189 3.56862378,74 4.79591441,74 C6.02320482,74 7.25049545,73.5303189 8.18544847,72.5953465 L36.999561,43.7797577 L65.8145515,72.5953465 C66.7495046,73.5303189 67.9767952,74 69.2040858,74 C70.4313762,74 71.6586666,73.5303189 72.5936199,72.5953465 C74.4687934,70.7210119 74.4687934,67.690472 72.5936199,65.8161374 L43.7795072,37.0005486 Z" id="Path" fill="white"></path>
            </g>
        </g>
    </g>
</svg>
