
<svg width="18px" height="14px" viewBox="0 0 18 14" version="1.1" xmlns="http://www.w3.org/2000/svg" xmlns:xlink="http://www.w3.org/1999/xlink">
    <g id="home" stroke="none" stroke-width="1" fill="none" fill-rule="evenodd">
        <g id="Dashboard-home" transform="translate(-49.000000, -281.000000)" fill="#000000" fill-rule="nonzero">
            <g id="cooking" transform="translate(49.000000, 281.000000)">
                <circle id="Oval" cx="2.5" cy="2.5" r="1"></circle>
                <circle id="Oval" cx="4.5" cy="0.5" r="1"></circle>
                <path d="M17.910898,3.57581013 L17.845018,3.44913046 C17.6430445,3.05904354 17.1563578,2.89253612 16.743585,3.07230326 L12.5397467,4.91823591 L12.5432622,4.92587659 C12.2780214,4.99383623 12.0543646,5.16527393 11.9263224,5.39877409 C11.7982802,5.63227425 11.7774973,5.9066014 11.8689944,6.15548411 L11.7862753,6.20852932 C10.682733,5.67773916 8.00633275,6.10565069 5.50570617,6.94216922 C5.35878281,6.99130393 5.21230475,7.04194875 5.06627198,7.09410367 C4.78992061,6.10950483 5.50507338,5.3928705 5.54398967,5.35490379 L5.14554591,4.97314058 C4.87302508,5.2565641 4.66917722,5.59452853 4.54865367,5.96274304 C4.40635133,6.39404799 4.40241901,6.85657151 4.537369,7.29005652 C4.0873884,7.4628507 3.65498516,7.64551689 3.24581921,7.83535044 C3.01889539,7.02523619 2.99875173,6.18936001 3.02965274,5.5853411 C3.04698056,5.25301506 2.87556047,4.93778635 2.58186197,4.76188736 C2.28816347,4.58598837 1.91837868,4.57708403 1.61589455,4.73862708 C1.31341042,4.90017012 1.12580085,5.20675348 1.12581293,5.53949706 L1.12581293,7.45237013 C1.1256386,7.53302875 1.05763978,7.59834759 0.973768708,7.59842194 C0.78354021,7.59835567 0.601141888,7.67126411 0.467006698,7.80098534 C0.332871509,7.93070658 0.258080745,8.10652398 0.259213572,8.2894634 C0.271681837,8.72830466 0.352997763,9.16281814 0.500410206,9.57830304 C0.0700810997,10.0213607 -0.0838263285,10.4229694 0.0430471088,10.7738656 C0.515491587,12.0801503 1.60099948,13.090173 3.09957551,13.6178528 C3.83619285,13.8737665 4.61387543,14.0030813 5.39707804,13.9999443 C6.25231365,13.9970635 7.10101804,13.8565051 7.9079698,13.5840445 C9.53004441,13.0414553 10.8768926,12.0317707 11.7003571,10.741004 C12.5349657,9.43285978 12.7343985,7.99303231 12.261954,6.68674758 C12.2527924,6.66187184 12.2422304,6.63749385 12.2303147,6.61372168 C12.4703898,6.77717431 12.774071,6.82837676 13.0576463,6.75321468 L13.060986,6.75977349 L13.1029959,6.74009706 C13.1882635,6.71325762 13.2693004,6.67529778 13.3438409,6.6272788 L17.5216999,4.67008306 C17.72546,4.5759249 17.8814067,4.40706795 17.9545789,4.20136763 C18.0277511,3.99566732 18.0120275,3.77033163 17.9109331,3.57587774 L17.910898,3.57581013 Z M0.574340613,10.5961354 C0.535424322,10.4885913 0.599827796,10.3245534 0.749833048,10.132049 C0.915857169,10.4353688 1.1427322,10.7040445 1.41735115,10.9225545 C1.29370135,10.9114588 1.17098369,10.8922561 1.05005448,10.8650804 C0.783687058,10.8029407 0.614803713,10.7074999 0.574446077,10.5962707 L0.574446077,10.5961016 L0.574340613,10.5961354 Z M10.6511641,7.62986365 C10.5918932,8.11467453 10.4931787,8.21454422 10.4890304,8.21856741 L10.4944794,8.2238077 C10.2616496,8.37628308 10.0062856,8.52835277 9.73162166,8.67842778 C9.91514536,8.32907564 10.0363798,7.95257151 10.0902703,7.56461365 C10.1094536,7.42915452 10.2296704,7.32810734 10.3718245,7.32795561 C10.4521284,7.32793286 10.5286122,7.36092485 10.5819982,7.41861596 C10.6353841,7.47630707 10.6605797,7.55319402 10.6512344,7.62989746 L10.6511641,7.62986365 Z M5.12835524,8.31248684 L5.56047724,7.96618852 C5.4583498,7.8491879 5.36662486,7.72414198 5.28627031,7.59237026 C5.42045593,7.54473438 5.55555558,7.49814655 5.69054976,7.45294487 C7.2285694,6.93848411 8.72791883,6.61209888 9.9120006,6.53400173 C10.4629808,6.49769162 10.92741,6.51885561 11.2549115,6.59529616 C11.5214195,6.65743579 11.690338,6.75297802 11.7305902,6.86430872 C11.7708423,6.97563942 11.7000056,7.15134111 11.5311925,7.35912686 C11.4334857,7.47642625 11.3261667,7.58601121 11.210265,7.68683062 C11.2596759,7.24476083 10.9304724,6.8465852 10.471485,6.79326734 C10.0124977,6.73994948 9.59417829,7.05128977 9.53271617,7.49195963 C9.38984733,8.50319941 8.76824131,9.09251172 8.59485816,9.2392397 C7.94849794,9.52704321 7.28751839,9.78345258 6.61441619,10.0074993 C6.32750668,10.1034698 6.04256584,10.1927462 5.75959366,10.2753286 C4.64845796,10.069098 3.86281995,9.42335965 3.4228936,8.35339487 C3.8423599,8.15663062 4.28910626,7.96743943 4.75466042,7.78879642 C4.8611042,7.974703 4.98625688,8.15011794 5.12832009,8.31252065 L5.12835524,8.31248684 Z M0.865667899,8.18256158 C0.894204825,8.15478103 0.933163433,8.1392096 0.973768708,8.13935459 C1.36820248,8.13892606 1.6878431,7.83152784 1.68828869,7.45220108 L1.68828869,5.53949706 C1.68842443,5.33229414 1.86305129,5.16435558 2.07850624,5.16422503 C2.18541139,5.16422503 2.28761293,5.20650683 2.36123769,5.28105006 C2.43486244,5.3555933 2.47346228,5.45592138 2.4680207,5.55859874 C2.42780369,6.34440483 2.46960267,7.50044551 2.89715455,8.54529073 C3.14341346,9.1470783 3.49172657,9.64230213 3.93235602,10.017067 C4.18328567,10.2298952 4.46570989,10.4056799 4.77037458,10.5386613 C4.1423826,10.6928238 3.50478029,10.8081991 2.86147249,10.8840806 C2.76152758,10.8952374 2.5783011,10.8477029 2.5783011,10.8477029 C1.95015631,10.7470218 1.47310656,10.36536 1.16037004,9.71336716 C0.95158728,9.26346088 0.836547596,8.77855443 0.82175236,8.28608257 C0.821363191,8.24730821 0.837184474,8.21000693 0.865667899,8.18256158 L0.865667899,8.18256158 Z M12.7466675,6.24291235 L12.8125474,6.20068579 C12.8972501,6.14753403 12.9457531,6.05473624 12.9395748,5.95765229 C12.9333965,5.86056835 12.8734885,5.77415133 12.7826783,5.73132977 C12.691868,5.68850821 12.5841423,5.69587758 12.5005492,5.75062983 L12.3758202,5.83058644 C12.3802975,5.64178812 12.5197037,5.48095611 12.712007,5.44272969 C12.9043104,5.40450326 13.0985952,5.49900355 13.1805374,5.67062323 C13.2624796,5.8422429 13.2103834,6.04554256 13.0549042,6.16089343 L12.9002234,6.23341222 C12.8501964,6.24610805 12.7980827,6.2493459 12.7467729,6.24294615 L12.7466675,6.24291235 Z" id="Shape"></path>
                <polygon id="Path" points="3 3 4 3 4 4 3 4"></polygon>
                <polygon id="Path" points="3 6 4 6 4 7 3 7"></polygon>
                <polygon id="Path" points="5 8 6 8 6 9 5 9"></polygon>
                <polygon id="Path" points="0 3 1 3 1 4 0 4"></polygon>
                <path d="M2.75643559,10 L3,9.65744577 C2.46341731,9.32201951 2.43973325,9.01299503 2.43910204,9 C2.43929414,9.00347392 2.43910204,9.00527521 2.43910204,9.00527521 L2,9.00527521 C2,9.05869638 2.02121412,9.5405162 2.75643559,10 Z" id="Path"></path>
                <path d="M5.42480884,3 C5.42480884,2.69592038 5.52110769,2.33100993 5.70329758,1.9447416 C5.79103765,1.75839584 5.8903238,1.58328728 6,1.4214548 L5.84961767,1.21085786 L5.6994212,1 C5.67087935,1.0401066 5,1.99360754 5,3 L5.42480884,3 Z" id="Path"></path>
            </g>
        </g>
    </g>
</svg>
