
<svg width="24px" height="21px" viewBox="0 0 24 21" version="1.1" xmlns="http://www.w3.org/2000/svg" xmlns:xlink="http://www.w3.org/1999/xlink">
    <g id="home" stroke="none" stroke-width="1" fill="none" fill-rule="evenodd">
        <g id="Extra-Large-Copy" transform="translate(-1128.000000, -2897.000000)" fill="#000000" fill-rule="nonzero">
            <g id="Group" transform="translate(1128.000000, 2897.000000)">
                <path d="M13.9948892,16.5856338 L1.84615385,16.5856338 C0.827099404,16.5843117 0.00132219417,15.7585344 0,14.73948 L0,5.50871077 C0.00132219417,4.48965633 0.827099404,3.66387912 1.84615385,3.66255692 L13.9353508,3.66255692 C14.4400617,3.66969479 14.8454654,4.08087244 14.8454654,4.58563385 C14.8454654,5.09039526 14.4400617,5.5015729 13.9353508,5.50871077 L1.84615385,5.50871077 L1.84615385,14.73948 L13.9948892,14.73948 C14.4976781,14.7492816 14.9001466,15.1596726 14.9001466,15.6625569 C14.9001466,16.1654413 14.4976781,16.5758322 13.9948892,16.5856338 Z M24,5.50871077 L24,14.73948 C23.9986778,15.7585344 23.1729006,16.5843117 22.1538462,16.5856338 L18.4615385,16.5856338 L18.4615385,18.4615385 L19.0573385,18.4615385 C19.5601276,18.471325 19.9626085,18.8817039 19.9626235,19.3845882 C19.9626386,19.8874726 19.5601824,20.2978756 19.0573938,20.3076923 L15.6626215,20.3076923 C15.1598323,20.2979083 14.7573494,19.8875314 14.7573318,19.3846471 C14.7573142,18.8817627 15.1597684,18.4713577 15.6625569,18.4615385 L16.6153846,18.4615385 C16.6132246,16.6043723 16.6164,4.03403077 16.6153846,1.84615385 L15.6625569,1.84615385 C15.1527556,1.84615385 14.73948,1.43287823 14.73948,0.923076923 C14.73948,0.413275616 15.1527556,0 15.6625569,0 L19.0573385,0 C19.5601276,0.00978652921 19.9626085,0.420165391 19.9626235,0.923049765 C19.9626386,1.42593414 19.5601824,1.83633715 19.0573938,1.84615385 L18.4615385,1.84615385 L18.4615385,3.66255692 L22.1538462,3.66255692 C23.1729006,3.66387912 23.9986778,4.48965633 24,5.50871077 L24,5.50871077 Z M22.1538462,5.50871077 L18.4615385,5.50871077 L18.4615385,14.73948 L22.1538462,14.73948 L22.1538462,5.50871077 Z" id="Shape"></path>
            </g>
        </g>
    </g>
</svg>
