
<svg width="18px" height="19px" viewBox="0 0 18 19" version="1.1" xmlns="http://www.w3.org/2000/svg" xmlns:xlink="http://www.w3.org/1999/xlink">
    <g id="home" stroke="none" stroke-width="1" fill="none" fill-rule="evenodd">
        <g id="Dashboard-home" transform="translate(-49.000000, -332.000000)" fill="#000000" fill-rule="nonzero">
            <g id="settings-2" transform="translate(49.000000, 332.000000)">
                <path d="M17.6884026,11.2678611 L15.9893801,9.93928699 C16.0109334,9.73440498 16.0294179,9.49490061 16.0294179,9.24149675 C16.0294179,8.98809289 16.0116915,8.74858852 15.9893801,8.5437065 L17.689955,7.21437421 C18.0057441,6.96483333 18.0919931,6.52196324 17.8909741,6.1530673 L16.124151,3.09615539 C15.9354429,2.75112324 15.521852,2.57396799 15.1021237,2.72877576 L13.0973125,3.53361009 C12.7130008,3.25634244 12.3101684,3.02221735 11.8935088,2.83506169 L11.5885144,0.70858491 C11.5384401,0.304994412 11.1872345,0 10.7721272,0 L7.2292749,0 C6.81413158,0 6.46372015,0.304994412 6.41440405,0.702411373 L6.10865149,2.8366141 C5.70506099,3.01839048 5.30843829,3.24944685 4.90715835,3.5351625 L2.89696791,2.72801761 C2.52030992,2.58245209 2.06974999,2.74570786 1.88259433,3.0892237 L0.113496774,6.14996248 C-0.0952121148,6.50272058 -0.00896310321,6.96097035 0.313757665,7.21668477 L2.01278016,8.54525891 C1.98581155,8.80480021 1.97274242,9.0304773 1.97274242,9.24229101 C1.97274242,9.45410471 1.98584765,9.6797457 2.01278016,9.94008125 L0.312205255,11.2694135 C-0.00358382203,11.5197126 -0.0890746799,11.9625827 0.111944364,12.3307205 L1.87876746,15.3875963 C2.06747553,15.7318703 2.47720347,15.9105418 2.90079478,15.7549759 L4.90560594,14.9501416 C5.28915952,15.2266511 5.69195576,15.4607761 6.10865149,15.64869 L6.4136459,17.7744086 C6.46368405,18.1795154 6.81413158,18.4845098 7.23003305,18.4845098 L10.7728854,18.4845098 C11.1880287,18.4845098 11.5392344,18.1795154 11.5885144,17.7820984 L11.894267,15.64869 C12.2978575,15.4661554 12.693722,15.2358572 13.0957601,14.9493473 L15.1059505,15.7564922 C15.2029942,15.7942194 15.3039009,15.8134981 15.4078762,15.8134981 C15.7066971,15.8134981 15.9816542,15.6502063 16.120288,15.3960443 L17.894801,12.3229945 C18.0919931,11.9625466 18.005708,11.5197126 17.6884026,11.2678611 Z M9.00068302,12.3229945 C7.30166053,12.3229945 5.91994342,10.9412774 5.91994342,9.2422549 C5.91994342,7.54323241 7.30166053,6.1615153 9.00068302,6.1615153 C10.6997055,6.1615153 12.0814226,7.54323241 12.0814226,9.2422549 C12.0814226,10.9412774 10.6997055,12.3229945 9.00068302,12.3229945 Z" id="Shape"></path>
            </g>
        </g>
    </g>
</svg>
