<?xml version="1.0" encoding="UTF-8"?><svg id="uuid-7dbe7932-30b8-4bfe-b2a0-3ce4605fba09" xmlns="http://www.w3.org/2000/svg" viewBox="0 0 75.23 29.6"><path d="m3.56,3.14v3.47h9.74v2.96H3.56v4.27H.05V.19h14.41v2.94H3.56Z"/><path d="m29.64,10.89v2.94h-14.03V.19h3.51v10.69h10.52Z"/><path d="m30.15,6.99c0-4.52,2.57-6.99,8.57-6.99s8.57,2.49,8.57,6.99-2.59,7.03-8.57,7.03-8.57-2.49-8.57-7.03Zm13.64,0c0-2.77-1.4-4.05-5.06-4.05s-5.06,1.27-5.06,4.05,1.42,4.09,5.06,4.09,5.06-1.31,5.06-4.09Z"/><path d="m75.23.19l-5.38,13.64h-4.85l-4.01-10.27-4.03,10.27h-4.83L46.75.19h3.78l4.03,10.71L58.82.19h4.31l4.29,10.73L71.43.19h3.8Z"/><path d="m8.57,15.58c5.43,0,8.16,2.06,8.51,6h-3.56c-.33-2.2-2.03-3.06-4.95-3.06-3.56,0-5.06,1.27-5.06,4.05s1.52,4.09,5.06,4.09c2.9,0,4.62-.88,4.95-3.1h3.56c-.35,3.95-3.08,6.04-8.51,6.04-6,0-8.57-2.49-8.57-7.03s2.57-6.99,8.57-6.99Z"/><path d="m18.15,22.57c0-4.52,2.57-6.99,8.57-6.99s8.57,2.49,8.57,6.99-2.59,7.03-8.57,7.03-8.57-2.49-8.57-7.03Zm13.64,0c0-2.77-1.4-4.05-5.06-4.05s-5.06,1.27-5.06,4.05,1.42,4.09,5.06,4.09,5.06-1.31,5.06-4.09Z"/><path d="m36.37,22.57c0-4.52,2.57-6.99,8.57-6.99s8.57,2.49,8.57,6.99-2.59,7.03-8.57,7.03-8.57-2.49-8.57-7.03Zm13.64,0c0-2.77-1.4-4.05-5.06-4.05s-5.06,1.27-5.06,4.05,1.42,4.09,5.06,4.09,5.06-1.31,5.06-4.09Z"/><path d="m65.06,21.83l8.26,7.58h-4.85l-6-5.67-4.19,3.06v2.61h-3.51v-13.64h3.51v7.07l9.72-7.07h5.32l-8.26,6.06Z"/></svg>
