<svg fill="none" height="512" viewBox="0 0 24 24" width="512" xmlns="http://www.w3.org/2000/svg"><path clip-rule="evenodd" d="m6.4443 3.6853c1.64449-1.09881 3.5779-1.6853 5.5557-1.6853.5523 0 1 .44772 1 1s-.4477 1-1 1c-1.5822 0-3.12896.46919-4.44456 1.34824-1.31559.87905-2.34097 2.12848-2.94647 3.59029-.6055 1.46177-.76393 3.07037-.45525 4.62217.30868 1.5519 1.07061 2.9773 2.18943 4.0962 1.11882 1.1188 2.54428 1.8807 4.09615 2.1894 1.5518.3087 3.1604.1502 4.6222-.4553s2.7112-1.6308 3.5903-2.9464c.879-1.3156 1.3482-2.8623 1.3482-4.4446 0-.5523.4477-1 1-1s1 .4477 1 1c0 1.9778-.5865 3.9112-1.6853 5.5557s-2.6606 2.9262-4.4879 3.6831c-1.8272.7569-3.8379.9549-5.7777.5691-1.93981-.3859-3.72164-1.3383-5.12016-2.7368-1.39853-1.3986-2.35094-3.1804-2.73679-5.1202s-.18782-3.9505.56906-5.77773c.75688-1.82727 2.0386-3.38905 3.68309-4.48787z" fill="white" fill-rule="evenodd"/></svg>
